<svg width="3000" height="3000" viewBox="0 0 3000 3000" fill="none" xmlns="http://www.w3.org/2000/svg">
<path d="M496.5 2574.5C498.833 2567.5 506.667 2549.5 520 2520.5C533.667 2491.17 552 2451.67 575 2402C598.333 2352 625.667 2292.67 657 2224C658.333 2221.33 659.333 2218.5 660 2215.5C661 2212.5 661.5 2209.83 661.5 2207.5C661.5 2204.17 660.5 2201.5 658.5 2199.5C656.5 2197.5 652.667 2196.5 647 2196.5C633 2196.5 621.5 2200.83 612.5 2209.5C603.833 2217.83 597.333 2228.17 593 2240.5C589 2252.83 587 2265 587 2277C587 2280 587.167 2283.5 587.5 2287.5C587.833 2291.5 588.333 2296 589 2301C581 2301 574.333 2298.67 569 2294C564 2289 560.167 2283 557.5 2276C554.833 2268.67 553.5 2261.83 553.5 2255.5C553.5 2244.83 556.5 2234.5 562.5 2224.5C568.833 2214.5 577 2205.5 587 2197.5C597 2189.17 608 2182.67 620 2178C632.333 2173.33 644.5 2171 656.5 2171C668.833 2171 679.333 2174.5 688 2181.5C696.667 2188.17 703.333 2200.5 708 2218.5C712.667 2236.17 715 2261.67 715 2295C715 2316.67 714.167 2338.67 712.5 2361C711.167 2383 709.667 2403.67 708 2423C706.333 2442.33 705.5 2458.83 705.5 2472.5C712.167 2452.83 720.333 2432 730 2410C740 2387.67 750.667 2365.67 762 2344C773.333 2322 784.5 2301.33 795.5 2282C806.5 2262.67 816.333 2245.83 825 2231.5C834 2216.83 840.833 2206 845.5 2199C850.167 2191.67 854.333 2186.17 858 2182.5C861.667 2178.83 866.667 2177 873 2177C877.667 2177 885 2178.83 895 2182.5C892 2188.83 888.5 2199 884.5 2213C880.5 2226.67 876.167 2242.67 871.5 2261C866.5 2281 861.5 2303 856.5 2327C851.5 2350.67 847 2374.67 843 2399C839 2423.33 835.667 2446.5 833 2468.5C830.667 2490.17 829.5 2509.33 829.5 2526C829.5 2534.67 829.833 2541.5 830.5 2546.5C831.5 2551.5 832.667 2555.83 834 2559.5C835.667 2563.5 837.5 2568.5 839.5 2574.5C825.167 2574.5 814.167 2572.33 806.5 2568C799.167 2563.67 794.167 2556.67 791.5 2547C789.167 2537.67 788 2525.17 788 2509.5C788 2472.5 792.167 2433.67 800.5 2393C809.167 2352 819.167 2309.83 830.5 2266.5C821.167 2279.83 811.5 2295.67 801.5 2314C791.5 2332.33 781.667 2351.67 772 2372C762.333 2392.33 753.167 2412.5 744.5 2432.5C735.833 2452.17 728.167 2470.5 721.5 2487.5C714.833 2504.17 709.667 2518.17 706 2529.5C701 2531.17 697.5 2532 695.5 2532C683.833 2532 676.333 2525 673 2511C670 2496.67 668.5 2477.17 668.5 2452.5C668.5 2434.83 668.833 2416 669.5 2396C670.167 2375.67 670.833 2355.17 671.5 2334.5C672.167 2313.5 672.5 2293.67 672.5 2275C672.5 2270 672.333 2265 672 2260C672 2255 672 2250.17 672 2245.5C646.667 2304.5 625.167 2355 607.5 2397C590.167 2438.67 575.333 2472.67 563 2499C550.667 2525 539.333 2544 529 2556C518.667 2568.33 507.833 2574.5 496.5 2574.5ZM912.648 2671C904.315 2671 896.482 2668.33 889.148 2663C882.148 2658 878.648 2649.83 878.648 2638.5C878.648 2627.83 881.815 2618.17 888.148 2609.5C894.482 2601.17 902.648 2593.33 912.648 2586C922.648 2579 933.315 2572.5 944.648 2566.5C956.315 2560.83 967.482 2555.5 978.148 2550.5C981.815 2540.83 985.815 2528.67 990.148 2514C994.815 2499 998.815 2485.17 1002.15 2472.5C991.815 2486.83 980.815 2499.5 969.148 2510.5C957.482 2521.5 944.482 2527 930.148 2527C924.148 2527 917.815 2525.83 911.148 2523.5C904.482 2520.83 898.815 2516.5 894.148 2510.5C889.815 2504.17 887.648 2495.83 887.648 2485.5C887.648 2476.83 889.148 2466.33 892.148 2454C895.482 2441.67 899.482 2429.67 904.148 2418C909.148 2406 914.315 2396.17 919.648 2388.5C924.982 2380.5 929.648 2376.5 933.648 2376.5C935.648 2376.5 938.482 2377.33 942.148 2379C946.148 2380.33 949.982 2382.33 953.648 2385C957.315 2387.33 959.648 2390 960.648 2393C957.648 2397 954.315 2402.83 950.648 2410.5C946.982 2417.83 943.482 2426.17 940.148 2435.5C936.815 2444.5 933.982 2453.33 931.648 2462C929.648 2470.67 928.648 2478.17 928.648 2484.5C928.648 2489.5 929.648 2493.83 931.648 2497.5C933.648 2501.17 937.482 2503 943.148 2503C950.482 2503 957.982 2500 965.648 2494C973.648 2488 981.315 2480.33 988.648 2471C996.315 2461.67 1003.15 2452.17 1009.15 2442.5C1009.82 2440.17 1010.48 2436.5 1011.15 2431.5C1011.82 2426.5 1012.98 2421.33 1014.65 2416C1016.32 2410.33 1019.15 2405.17 1023.15 2400.5C1027.48 2395.83 1033.48 2393.5 1041.15 2393.5C1043.82 2393.5 1046.32 2393.67 1048.65 2394C1050.98 2394.33 1053.82 2394.83 1057.15 2395.5C1057.15 2400.5 1055.32 2410.33 1051.65 2425C1048.32 2439.33 1043.82 2456 1038.15 2475C1032.48 2494 1026.15 2513 1019.15 2532C1033.15 2526.33 1047.65 2517 1062.65 2504C1077.98 2490.67 1090.32 2471.83 1099.65 2447.5L1108.15 2454.5C1103.15 2471.17 1095.48 2485.67 1085.15 2498C1075.15 2510.33 1063.82 2520.83 1051.15 2529.5C1038.48 2538.17 1025.65 2545.33 1012.65 2551C1003.65 2572.67 993.815 2592.67 983.148 2611C972.815 2629.33 961.815 2643.83 950.148 2654.5C938.482 2665.5 925.982 2671 912.648 2671ZM907.648 2652.5C913.982 2652.5 922.815 2645.83 934.148 2632.5C945.482 2619.17 956.982 2599.17 968.648 2572.5C957.982 2577.83 947.148 2584 936.148 2591C925.482 2598.33 916.482 2606 909.148 2614C901.815 2622 898.148 2630.17 898.148 2638.5C898.148 2641.83 898.815 2645 900.148 2648C901.815 2651 904.315 2652.5 907.648 2652.5ZM1257.34 2541C1244.34 2541 1234.34 2537.67 1227.34 2531C1220.68 2524.67 1217.34 2516.5 1217.34 2506.5C1217.34 2499.83 1218.51 2492.83 1220.84 2485.5C1223.18 2477.83 1225.51 2470.17 1227.84 2462.5C1230.18 2454.83 1231.34 2447.5 1231.34 2440.5C1231.34 2433.17 1229.51 2428.17 1225.84 2425.5C1222.51 2422.5 1218.51 2421 1213.84 2421C1203.84 2421 1193.51 2425.17 1182.84 2433.5C1172.51 2441.5 1162.34 2451.67 1152.34 2464C1142.68 2476.33 1133.51 2489.17 1124.84 2502.5C1116.18 2515.83 1108.68 2527.83 1102.34 2538.5C1096.01 2538.5 1090.01 2537.33 1084.34 2535C1078.68 2533 1073.84 2529.33 1069.84 2524C1070.18 2522.33 1072.18 2517.33 1075.84 2509C1079.18 2500.33 1083.01 2490.17 1087.34 2478.5C1091.68 2466.5 1095.51 2454 1098.84 2441C1102.18 2428 1103.84 2416.17 1103.84 2405.5C1106.18 2402.83 1109.68 2400.17 1114.34 2397.5C1119.34 2394.83 1124.51 2393.5 1129.84 2393.5C1141.51 2393.5 1147.34 2398.5 1147.34 2408.5C1147.34 2417.5 1144.51 2432.33 1138.84 2453C1147.51 2441.33 1157.01 2430.33 1167.34 2420C1177.68 2409.67 1188.34 2401.33 1199.34 2395C1210.68 2388.33 1222.01 2385 1233.34 2385C1247.68 2385 1258.18 2389.83 1264.84 2399.5C1271.84 2409.17 1275.34 2419.83 1275.34 2431.5C1275.34 2441.5 1273.68 2450.83 1270.34 2459.5C1267.01 2468.17 1263.68 2476.33 1260.34 2484C1257.34 2491.67 1255.84 2499.17 1255.84 2506.5C1255.84 2511.83 1257.01 2515.67 1259.34 2518C1262.01 2520 1264.84 2521 1267.84 2521C1275.84 2521 1284.18 2517.17 1292.84 2509.5C1301.51 2501.83 1309.68 2492.17 1317.34 2480.5C1325.34 2468.5 1332.34 2456.5 1338.34 2444.5L1346.84 2451.5C1339.84 2467.83 1331.84 2482.83 1322.84 2496.5C1314.18 2509.83 1304.34 2520.67 1293.34 2529C1282.68 2537 1270.68 2541 1257.34 2541ZM1359.67 2546C1353.34 2546 1346.84 2544.33 1340.17 2541C1333.84 2538 1328.51 2533.17 1324.17 2526.5C1319.51 2519.83 1317.17 2511.33 1317.17 2501C1317.17 2490 1319.84 2477.67 1325.17 2464C1330.51 2450.33 1337.67 2436.67 1346.67 2423C1356.01 2409.33 1366.67 2396.83 1378.67 2385.5C1391.01 2374.17 1404.01 2365 1417.67 2358C1431.34 2351 1445.17 2347.5 1459.17 2347.5C1466.84 2347.5 1472.84 2348.83 1477.17 2351.5C1481.51 2353.83 1483.67 2357.83 1483.67 2363.5C1483.67 2365.17 1483.34 2367.17 1482.67 2369.5C1482.01 2371.5 1480.34 2373.33 1477.67 2375C1476.34 2373 1474.01 2371.67 1470.67 2371C1467.34 2370 1463.84 2369.5 1460.17 2369.5C1449.17 2369.5 1438.67 2372.67 1428.67 2379C1418.67 2385 1409.51 2392.83 1401.17 2402.5C1392.84 2412.17 1385.51 2422.67 1379.17 2434C1373.17 2445.33 1368.51 2456.33 1365.17 2467C1361.84 2477.33 1360.17 2486.33 1360.17 2494C1360.17 2508 1365.51 2515 1376.17 2515C1385.17 2515 1395.84 2509.83 1408.17 2499.5C1420.84 2488.83 1433.67 2473.67 1446.67 2454C1460.01 2434 1472.01 2410.17 1482.67 2382.5C1490.01 2363.5 1497.67 2344.17 1505.67 2324.5C1513.67 2304.5 1521.67 2285.33 1529.67 2267C1537.67 2248.67 1545.51 2232.33 1553.17 2218C1561.17 2203.67 1568.67 2192.33 1575.67 2184C1583.01 2175.33 1589.67 2171 1595.67 2171C1599.34 2171 1602.51 2172.5 1605.17 2175.5C1608.17 2178.17 1609.67 2181.67 1609.67 2186C1609.67 2191.67 1606.84 2200.83 1601.17 2213.5C1595.84 2225.83 1588.84 2240.67 1580.17 2258C1571.84 2275.33 1562.67 2294.17 1552.67 2314.5C1543.01 2334.5 1533.84 2355.17 1525.17 2376.5C1516.84 2397.5 1509.84 2418.33 1504.17 2439C1498.84 2459.33 1496.17 2478.5 1496.17 2496.5C1496.17 2504.5 1496.84 2510 1498.17 2513C1499.84 2515.67 1502.51 2517 1506.17 2517C1516.84 2517 1529.51 2510.67 1544.17 2498C1559.17 2485 1572.34 2466.67 1583.67 2443L1593.17 2451C1585.84 2469.33 1576.51 2485.5 1565.17 2499.5C1553.84 2513.5 1541.67 2524.33 1528.67 2532C1515.67 2540 1502.84 2544 1490.17 2544C1476.51 2544 1467.01 2539.67 1461.67 2531C1456.34 2522.33 1453.67 2512.17 1453.67 2500.5C1453.67 2495.17 1454.01 2489.83 1454.67 2484.5C1455.67 2478.83 1456.67 2473.33 1457.67 2468C1442.01 2490.67 1425.34 2509.33 1407.67 2524C1390.34 2538.67 1374.34 2546 1359.67 2546ZM1687.28 2574.5C1667.94 2574.5 1649.44 2571.17 1631.78 2564.5C1614.44 2557.83 1600.28 2547.67 1589.28 2534C1578.28 2520.33 1572.78 2503.33 1572.78 2483C1572.78 2465 1576.78 2451 1584.78 2441C1592.78 2430.67 1602.78 2423.5 1614.78 2419.5C1626.78 2415.5 1638.44 2413.5 1649.78 2413.5C1639.11 2424.83 1630.94 2436.5 1625.28 2448.5C1619.94 2460.5 1617.28 2472 1617.28 2483C1617.28 2494.33 1620.11 2505 1625.78 2515C1631.78 2524.67 1640.61 2532.5 1652.28 2538.5C1663.94 2544.83 1678.44 2548 1695.78 2548C1710.78 2548 1725.28 2545.5 1739.28 2540.5C1753.61 2535.5 1765.28 2528 1774.28 2518C1783.61 2508 1788.28 2495.5 1788.28 2480.5C1788.28 2466.83 1784.28 2455.17 1776.28 2445.5C1768.61 2435.5 1758.61 2426.67 1746.28 2419C1733.94 2411 1720.94 2403.5 1707.28 2396.5C1693.61 2389.17 1680.61 2381.33 1668.28 2373C1655.94 2364.67 1645.78 2355 1637.78 2344C1630.11 2333 1626.28 2319.83 1626.28 2304.5C1626.28 2290.83 1629.61 2276.33 1636.28 2261C1643.28 2245.33 1653.11 2230.67 1665.78 2217C1678.44 2203.33 1693.78 2192.33 1711.78 2184C1729.78 2175.33 1749.78 2171 1771.78 2171C1794.78 2171 1810.94 2175.83 1820.28 2185.5C1829.61 2195.17 1834.28 2207.83 1834.28 2223.5C1834.28 2235.83 1832.11 2249 1827.78 2263C1823.44 2277 1818.11 2290.33 1811.78 2303C1805.78 2315.67 1799.94 2326.5 1794.28 2335.5C1779.61 2332.5 1772.28 2324 1772.28 2310C1772.28 2303 1773.61 2295.17 1776.28 2286.5C1779.28 2277.83 1782.61 2268.83 1786.28 2259.5C1790.28 2250.17 1793.61 2241.17 1796.28 2232.5C1799.28 2223.5 1800.78 2215.67 1800.78 2209C1800.78 2203 1798.94 2198.33 1795.28 2195C1791.94 2191.67 1784.94 2190 1774.28 2190C1758.28 2190 1743.61 2193.5 1730.28 2200.5C1716.94 2207.5 1705.28 2216.33 1695.28 2227C1685.61 2237.67 1678.11 2249 1672.78 2261C1667.44 2272.67 1664.78 2283.33 1664.78 2293C1664.78 2305 1668.61 2315.33 1676.28 2324C1683.94 2332.33 1693.78 2340 1705.78 2347C1718.11 2354 1730.94 2361 1744.28 2368C1757.94 2375 1770.78 2382.83 1782.78 2391.5C1795.11 2400.17 1805.11 2410.5 1812.78 2422.5C1820.44 2434.5 1824.28 2449.17 1824.28 2466.5C1824.28 2483.83 1820.28 2499.17 1812.28 2512.5C1804.61 2525.83 1794.11 2537 1780.78 2546C1767.44 2555.33 1752.61 2562.33 1736.28 2567C1720.28 2572 1703.94 2574.5 1687.28 2574.5ZM1882.47 2554.5C1871.47 2554.5 1861.97 2550.83 1853.97 2543.5C1845.64 2536.17 1841.47 2525.17 1841.47 2510.5C1841.47 2498.83 1844.14 2486.17 1849.47 2472.5C1854.8 2458.83 1862.14 2445.33 1871.47 2432C1880.8 2418.67 1891.47 2406.67 1903.47 2396C1915.47 2385 1928.3 2376.17 1941.97 2369.5C1955.64 2362.83 1969.3 2359.5 1982.97 2359.5C1997.3 2359.5 2009.47 2363.17 2019.47 2370.5C2029.47 2377.83 2034.47 2387.5 2034.47 2399.5C2034.47 2408.5 2031.3 2415 2024.97 2419C2018.64 2423 2011.14 2424.17 2002.47 2422.5C2003.14 2419.5 2003.64 2416.5 2003.97 2413.5C2004.64 2410.5 2004.97 2407.33 2004.97 2404C2004.97 2397.33 2003.64 2391.33 2000.97 2386C1998.3 2380.67 1992.64 2378 1983.97 2378C1974.64 2378 1965.14 2381.17 1955.47 2387.5C1945.8 2393.83 1936.47 2402.17 1927.47 2412.5C1918.8 2422.5 1910.97 2433.67 1903.97 2446C1896.97 2458 1891.47 2469.83 1887.47 2481.5C1883.47 2493.17 1881.47 2503.67 1881.47 2513C1881.47 2523.67 1885.3 2529 1892.97 2529C1900.64 2529 1909.14 2525.33 1918.47 2518C1927.8 2510.33 1937.14 2500.83 1946.47 2489.5C1956.14 2478.17 1965.3 2466.67 1973.97 2455C1982.64 2443 1990.14 2432.83 1996.47 2424.5C1997.47 2422.83 1998.8 2422 2000.47 2422C2001.8 2422.33 2004.3 2423.17 2007.97 2424.5C2011.97 2425.5 2015.64 2427.17 2018.97 2429.5C2022.3 2431.83 2023.97 2434.83 2023.97 2438.5C2023.97 2442.83 2021.64 2448.83 2016.97 2456.5C2012.3 2463.83 2007.47 2471.83 2002.47 2480.5C1997.8 2489.17 1995.47 2497.17 1995.47 2504.5C1995.47 2508.83 1996.64 2513 1998.97 2517C2001.3 2520.67 2005.14 2522.5 2010.47 2522.5C2018.47 2522.5 2029.64 2516.67 2043.97 2505C2058.64 2493 2073.47 2472.83 2088.47 2444.5L2097.97 2454C2085.64 2481.33 2070.3 2503.5 2051.97 2520.5C2033.64 2537.5 2015.14 2546 1996.47 2546C1982.8 2546 1972.64 2541.67 1965.97 2533C1959.3 2524.33 1955.64 2515 1954.97 2505V2502.5C1941.64 2518.5 1929.3 2531.17 1917.97 2540.5C1906.97 2549.83 1895.14 2554.5 1882.47 2554.5ZM2101.64 2671C2093.3 2671 2085.47 2668.5 2078.14 2663.5C2071.14 2658.5 2067.64 2650.33 2067.64 2639C2067.64 2628.33 2070.64 2618.67 2076.64 2610C2082.97 2601.67 2091.14 2593.83 2101.14 2586.5C2111.47 2579.5 2122.47 2573 2134.14 2567C2145.8 2561 2157.14 2555.33 2168.14 2550C2171.8 2541 2175.3 2531.33 2178.64 2521C2181.97 2510.67 2185.14 2499.5 2188.14 2487.5C2176.47 2502.17 2164.14 2514.33 2151.14 2524C2138.47 2533.67 2125.47 2538.5 2112.14 2538.5C2098.8 2538.5 2088.14 2533.83 2080.14 2524.5C2072.47 2515.17 2068.64 2502.83 2068.64 2487.5C2068.64 2469.83 2072.97 2453.33 2081.64 2438C2090.64 2422.33 2102.14 2408.5 2116.14 2396.5C2130.14 2384.17 2145.14 2374.67 2161.14 2368C2177.14 2361 2192.47 2357.5 2207.14 2357.5C2217.8 2357.5 2225.8 2359.5 2231.14 2363.5C2236.47 2367.17 2239.14 2371.5 2239.14 2376.5C2239.14 2380.5 2237.97 2383.67 2235.64 2386C2233.3 2388.33 2231.8 2389.67 2231.14 2390C2227.8 2386.33 2224.3 2384 2220.64 2383C2217.3 2381.67 2213.3 2381 2208.64 2381C2195.64 2381 2183.14 2384.67 2171.14 2392C2159.14 2399.33 2148.47 2408.83 2139.14 2420.5C2130.14 2431.83 2122.97 2443.67 2117.64 2456C2112.3 2468.33 2109.64 2479.5 2109.64 2489.5C2109.64 2496.17 2111.14 2501.33 2114.14 2505C2117.14 2508.33 2120.8 2510 2125.14 2510C2134.47 2510 2145.8 2504 2159.14 2492C2172.47 2479.67 2185.3 2464.83 2197.64 2447.5C2198.64 2442.5 2199.64 2438 2200.64 2434C2203.97 2420.67 2207.97 2410.83 2212.64 2404.5C2217.3 2398.17 2223.8 2395 2232.14 2395C2233.8 2395 2235.8 2395.17 2238.14 2395.5C2240.8 2395.83 2243.64 2396.33 2246.64 2397C2246.64 2403 2244.97 2412.83 2241.64 2426.5C2238.3 2440.17 2233.8 2456.17 2228.14 2474.5C2222.47 2492.5 2216.14 2511 2209.14 2530C2219.47 2525.67 2229.97 2519.67 2240.64 2512C2251.3 2504 2261.14 2494.5 2270.14 2483.5C2279.14 2472.17 2285.97 2459.67 2290.64 2446L2299.64 2455C2294.3 2470.33 2285.97 2484.33 2274.64 2497C2263.64 2509.67 2251.64 2520.67 2238.64 2530C2225.64 2539 2213.64 2546 2202.64 2551C2193.64 2573 2183.8 2593 2173.14 2611C2162.8 2629.33 2151.64 2643.83 2139.64 2654.5C2127.97 2665.5 2115.3 2671 2101.64 2671ZM2099.64 2648C2105.64 2648 2113.8 2642.33 2124.14 2631C2134.8 2619.67 2146.3 2600.5 2158.64 2573.5C2146.3 2579.5 2134.97 2585.67 2124.64 2592C2114.3 2598.33 2105.97 2605 2099.64 2612C2093.3 2619 2090.14 2626.33 2090.14 2634C2090.14 2643.33 2093.3 2648 2099.64 2648ZM2306.3 2554.5C2295.3 2554.5 2285.8 2550.83 2277.8 2543.5C2269.46 2536.17 2265.3 2525.17 2265.3 2510.5C2265.3 2498.83 2267.96 2486.17 2273.3 2472.5C2278.63 2458.83 2285.96 2445.33 2295.3 2432C2304.63 2418.67 2315.3 2406.67 2327.3 2396C2339.3 2385 2352.13 2376.17 2365.8 2369.5C2379.46 2362.83 2393.13 2359.5 2406.8 2359.5C2421.13 2359.5 2433.3 2363.17 2443.3 2370.5C2453.3 2377.83 2458.3 2387.5 2458.3 2399.5C2458.3 2408.5 2455.13 2415 2448.8 2419C2442.46 2423 2434.96 2424.17 2426.3 2422.5C2426.96 2419.5 2427.46 2416.5 2427.8 2413.5C2428.46 2410.5 2428.8 2407.33 2428.8 2404C2428.8 2397.33 2427.46 2391.33 2424.8 2386C2422.13 2380.67 2416.46 2378 2407.8 2378C2398.46 2378 2388.96 2381.17 2379.3 2387.5C2369.63 2393.83 2360.3 2402.17 2351.3 2412.5C2342.63 2422.5 2334.8 2433.67 2327.8 2446C2320.8 2458 2315.3 2469.83 2311.3 2481.5C2307.3 2493.17 2305.3 2503.67 2305.3 2513C2305.3 2523.67 2309.13 2529 2316.8 2529C2324.46 2529 2332.96 2525.33 2342.3 2518C2351.63 2510.33 2360.96 2500.83 2370.3 2489.5C2379.96 2478.17 2389.13 2466.67 2397.8 2455C2406.46 2443 2413.96 2432.83 2420.3 2424.5C2421.3 2422.83 2422.63 2422 2424.3 2422C2425.63 2422.33 2428.13 2423.17 2431.8 2424.5C2435.8 2425.5 2439.46 2427.17 2442.8 2429.5C2446.13 2431.83 2447.8 2434.83 2447.8 2438.5C2447.8 2442.83 2445.46 2448.83 2440.8 2456.5C2436.13 2463.83 2431.3 2471.83 2426.3 2480.5C2421.63 2489.17 2419.3 2497.17 2419.3 2504.5C2419.3 2508.83 2420.46 2513 2422.8 2517C2425.13 2520.67 2428.96 2522.5 2434.3 2522.5C2442.3 2522.5 2453.46 2516.67 2467.8 2505C2482.46 2493 2497.3 2472.83 2512.3 2444.5L2521.8 2454C2509.46 2481.33 2494.13 2503.5 2475.8 2520.5C2457.46 2537.5 2438.96 2546 2420.3 2546C2406.63 2546 2396.46 2541.67 2389.8 2533C2383.13 2524.33 2379.46 2515 2378.8 2505V2502.5C2365.46 2518.5 2353.13 2531.17 2341.8 2540.5C2330.8 2549.83 2318.96 2554.5 2306.3 2554.5Z" fill="#5A8A86"/>
<g clip-path="url(#clip0)">
<path d="M1587.71 764C1661.22 764 1734.07 788.286 1792.84 832.372C1825.62 856.94 1855.69 879.507 1855.69 879.507C1870.63 890.725 1873.66 911.935 1862.45 926.88C1851.22 941.825 1756.02 1031.16 1718.75 993.895C1718.75 993.895 1706.36 985.109 1691.1 974.271C1659.89 952.118 1626 940.406 1587.7 940.406C1538.99 940.406 1499.5 900.92 1499.5 852.208C1499.5 803.495 1539 764 1587.71 764Z" fill="#00ECCF"/>
<path d="M1411.29 764C1337.78 764 1264.93 788.286 1206.16 832.372C1173.38 856.94 1143.31 879.507 1143.31 879.507C1128.37 890.725 1125.35 911.935 1136.55 926.88C1147.78 941.825 1242.98 1031.16 1280.25 993.895C1280.25 993.895 1292.64 985.109 1307.9 974.271C1339.11 952.118 1373 940.406 1411.3 940.406C1460.01 940.406 1499.5 900.92 1499.5 852.208C1499.5 803.495 1460.01 764 1411.29 764Z" fill="#FFCC01"/>
<path d="M1411.29 1919C1337.78 1919 1264.93 1894.72 1206.16 1850.63C1173.38 1826.06 1143.31 1803.49 1143.31 1803.49C1128.37 1792.28 1125.35 1771.07 1136.55 1756.12C1147.78 1741.18 1242.98 1651.84 1280.25 1689.11C1280.25 1689.11 1292.64 1697.89 1307.9 1708.73C1339.11 1730.88 1373 1742.6 1411.3 1742.6C1460.01 1742.6 1499.5 1782.08 1499.5 1830.79C1499.5 1879.51 1460.01 1919 1411.29 1919V1919Z" fill="#00347B"/>
<path d="M1587.71 1919C1661.22 1919 1734.07 1894.72 1792.84 1850.63C1825.62 1826.06 1855.69 1803.49 1855.69 1803.49C1870.63 1792.28 1873.66 1771.07 1862.45 1756.12C1851.22 1741.18 1756.02 1651.84 1718.75 1689.11C1718.75 1689.11 1706.36 1697.89 1691.1 1708.73C1659.89 1730.88 1626 1742.6 1587.7 1742.6C1538.99 1742.6 1499.5 1782.08 1499.5 1830.79C1499.5 1879.51 1539 1919 1587.71 1919V1919Z" fill="#FF5E91"/>
<path d="M2077 1253.29C2077 1179.78 2052.72 1106.93 2008.63 1048.16C1984.06 1015.38 1961.49 985.313 1961.49 985.313C1950.28 970.368 1929.07 967.346 1914.12 978.555C1899.18 989.781 1809.84 1084.98 1847.11 1122.25C1847.11 1122.25 1855.89 1134.64 1866.73 1149.9C1888.88 1181.11 1900.6 1215 1900.6 1253.3C1900.6 1302.01 1940.08 1341.5 1988.79 1341.5C2037.51 1341.5 2077 1302.01 2077 1253.29V1253.29Z" fill="#00CAB1"/>
<path d="M2077 1429.71C2077 1503.22 2052.72 1576.07 2008.63 1634.84C1984.06 1667.62 1961.49 1697.69 1961.49 1697.69C1950.28 1712.63 1929.07 1715.66 1914.12 1704.45C1899.18 1693.22 1809.84 1598.02 1847.11 1560.75C1847.11 1560.75 1855.89 1548.36 1866.73 1533.1C1888.88 1501.89 1900.6 1468 1900.6 1429.7C1900.6 1380.99 1940.08 1341.5 1988.79 1341.5C2037.51 1341.5 2077 1381 2077 1429.71V1429.71Z" fill="#CF0050"/>
<path d="M922 1253.29C922 1179.78 946.286 1106.93 990.372 1048.16C1014.94 1015.38 1037.51 985.313 1037.51 985.313C1048.72 970.368 1069.94 967.346 1084.88 978.555C1099.83 989.781 1189.16 1084.98 1151.89 1122.25C1151.89 1122.25 1143.11 1134.64 1132.27 1149.9C1110.12 1181.11 1098.41 1215 1098.41 1253.3C1098.41 1302.01 1058.92 1341.5 1010.21 1341.5C961.495 1341.5 922 1302.01 922 1253.29Z" fill="#FFF36E"/>
<path d="M922 1429.71C922 1503.22 946.286 1576.07 990.372 1634.84C1014.94 1667.62 1037.51 1697.69 1037.51 1697.69C1048.72 1712.63 1069.94 1715.66 1084.88 1704.45C1099.83 1693.22 1189.16 1598.02 1151.89 1560.75C1151.89 1560.75 1143.11 1548.36 1132.27 1533.1C1110.12 1501.89 1098.41 1468 1098.41 1429.7C1098.41 1380.99 1058.92 1341.5 1010.21 1341.5C961.495 1341.5 922 1381 922 1429.71Z" fill="#0051BD"/>
<path d="M1164.28 1148.85C1085.66 1148.85 1021.71 1084.89 1021.71 1006.28C1021.71 927.664 1085.66 863.707 1164.28 863.707C1242.9 863.707 1306.85 927.664 1306.85 1006.28C1306.85 1084.9 1242.89 1148.85 1164.28 1148.85Z" fill="#FFECE3"/>
<path d="M1164.28 863.707V1148.85C1242.89 1148.85 1306.85 1084.89 1306.85 1006.28C1306.85 927.664 1242.89 863.707 1164.28 863.707Z" fill="#FFDCCD"/>
<path d="M1834.73 1148.85C1756.11 1148.85 1692.15 1084.89 1692.15 1006.28C1692.15 927.664 1756.11 863.707 1834.73 863.707C1913.34 863.707 1977.29 927.664 1977.29 1006.28C1977.29 1084.9 1913.34 1148.85 1834.73 1148.85V1148.85Z" fill="#E8AFA3"/>
<path d="M1834.72 863.707V1148.85C1913.33 1148.85 1977.29 1084.89 1977.29 1006.28C1977.29 927.664 1913.33 863.707 1834.72 863.707V863.707Z" fill="#D19188"/>
<path d="M1164.28 1819.29C1085.66 1819.29 1021.71 1755.34 1021.71 1676.73C1021.71 1598.11 1085.66 1534.15 1164.28 1534.15C1242.9 1534.15 1306.85 1598.11 1306.85 1676.73C1306.85 1755.34 1242.89 1819.29 1164.28 1819.29V1819.29Z" fill="#FFECE3"/>
<path d="M1164.28 1534.15V1819.29C1242.89 1819.29 1306.85 1755.34 1306.85 1676.73C1306.85 1598.11 1242.89 1534.15 1164.28 1534.15V1534.15Z" fill="#FFDCCD"/>
<path d="M1834.73 1819.29C1756.11 1819.29 1692.15 1755.34 1692.15 1676.73C1692.15 1598.11 1756.11 1534.15 1834.73 1534.15C1913.34 1534.15 1977.29 1598.11 1977.29 1676.73C1977.29 1755.34 1913.34 1819.29 1834.73 1819.29V1819.29Z" fill="#E8AFA3"/>
<path d="M1834.72 1534.15V1819.29C1913.33 1819.29 1977.29 1755.34 1977.29 1676.73C1977.29 1598.11 1913.33 1534.15 1834.72 1534.15V1534.15Z" fill="#D19188"/>
<path d="M1499.56 1592.8C1490.89 1592.8 1482.24 1589.5 1475.63 1582.89L1295 1402.25C1231.99 1339.25 1231.99 1236.73 1295 1173.74C1350.53 1118.2 1436.75 1111.62 1499.56 1154C1562.37 1111.62 1648.61 1118.2 1704.14 1173.74C1767.15 1236.74 1767.15 1339.25 1704.14 1402.25L1523.48 1582.89C1516.87 1589.5 1508.22 1592.8 1499.56 1592.8Z" fill="#FF5E91"/>
</g>
<defs>
<clipPath id="clip0">
<rect width="1155" height="1155" fill="white" transform="translate(922 764)"/>
</clipPath>
</defs>
</svg>
